name C:\Users\r0593348\3dpredictsim\Results\Final\Fal_s1_bCst_PF_None_ls150_MT_k250_MTP_T17_ig24.mot
datacolumns 128
datarows 4
range 1.17385052 1.20906604
endheader
time	pelvis_tilt	pelvis_list	pelvis_rotation	pelvis_tx	pelvis_ty	pelvis_tz	hip_flexion_l	hip_adduction_l	hip_rotation_l	hip_flexion_r	hip_adduction_r	hip_rotation_r	knee_angle_l	knee_angle_r	ankle_angle_l	ankle_angle_r	subtalar_angle_l	subtalar_angle_r	mtj_angle_l	mtj_angle_r	mtp_angle_l	mtp_angle_r	lumbar_extension	lumbar_bending	lumbar_rotation	arm_flex_l	arm_add_l	arm_rot_l	arm_flex_r	arm_add_r	arm_rot_r	elbow_flex_l	elbow_flex_r	pro_sup_l	pro_sup_r	glut_med1_l/activation	glut_med2_l/activation	glut_med3_l/activation	glut_min1_l/activation	glut_min2_l/activation	glut_min3_l/activation	semimem_l/activation	semiten_l/activation	bifemlh_l/activation	bifemsh_l/activation	sar_l/activation	add_long_l/activation	add_brev_l/activation	add_mag1_l/activation	add_mag2_l/activation	add_mag3_l/activation	tfl_l/activation	pect_l/activation	grac_l/activation	glut_max1_l/activation	glut_max2_l/activation	glut_max3_l/activation	iliacus_l/activation	psoas_l/activation	quad_fem_l/activation	gem_l/activation	peri_l/activation	rect_fem_l/activation	vas_med_l/activation	vas_int_l/activation	vas_lat_l/activation	med_gas_l/activation	lat_gas_l/activation	soleus_l/activation	tib_post_l/activation	flex_dig_l/activation	flex_hal_l/activation	tib_ant_l/activation	per_brev_l/activation	per_long_l/activation	per_tert_l/activation	ext_dig_l/activation	ext_hal_l/activation	ercspn_l/activation	intobl_l/activation	extobl_l/activation	glut_med1_r/activation	glut_med2_r/activation	glut_med3_r/activation	glut_min1_r/activation	glut_min2_r/activation	glut_min3_r/activation	semimem_r/activation	semiten_r/activation	bifemlh_r/activation	bifemsh_r/activation	sar_r/activation	add_long_r/activation	add_brev_r/activation	add_mag1_r/activation	add_mag2_r/activation	add_mag3_r/activation	tfl_r/activation	pect_r/activation	grac_r/activation	glut_max1_r/activation	glut_max2_r/activation	glut_max3_r/activation	iliacus_r/activation	psoas_r/activation	quad_fem_r/activation	gem_r/activation	peri_r/activation	rect_fem_r/activation	vas_med_r/activation	vas_int_r/activation	vas_lat_r/activation	med_gas_r/activation	lat_gas_r/activation	soleus_r/activation	tib_post_r/activation	flex_dig_r/activation	flex_hal_r/activation	tib_ant_r/activation	per_brev_r/activation	per_long_r/activation	per_tert_r/activation	ext_dig_r/activation	ext_hal_r/activation	ercspn_r/activation	intobl_r/activation	extobl_r/activation	
          1.17385052	         -2.92983799	         -2.33557740	          6.28675023	          1.46731315	          0.91783869	         -0.00283809	        -16.31940679	         -1.59562149	          7.30381275	         29.50529426	          3.18285769	         -2.98591212	         -9.49285651	         -9.93379359	         -7.73330179	          5.33477367	         11.64524841	         -3.49239267	         10.68680116	          0.45433706	         20.03285485	          0.34874533	         -1.83970593	          0.45264463	         -2.36239821	          5.32895171	        -13.45548555	         16.50167990	         -6.65956305	        -13.49239807	          5.76504356	         38.06780854	         17.09446217	         86.51662706	         86.51662706	          0.20839238	          0.10217711	          0.07289585	          0.23936192	          0.18119530	          0.10473660	          0.05000779	          0.05000144	          0.05000090	          0.05000328	          0.11072290	          0.08318475	          0.06531567	          0.05000611	          0.05000928	          0.05000327	          0.30592083	          0.08826636	          0.05001015	          0.05000657	          0.05000403	          0.05000341	          0.45228256	          0.63201919	          0.05000075	          0.05000260	          0.05002544	          0.34917341	          0.05000216	          0.05000218	          0.05000205	          0.25322262	          0.35403700	          0.33857892	          0.28012521	          0.23206681	          0.31102098	          0.05000020	          0.05978281	          0.09642630	          0.05000128	          0.05000038	          0.05000128	          0.05000009	          0.05000064	          0.05937613	          0.05978203	          0.05978200	          0.05000133	          0.05978242	          0.05978233	          0.05973106	          0.16887268	          0.10227906	          0.22007524	          0.10715668	          0.05000124	          0.15066082	          0.24429761	          0.28462129	          0.22125580	          0.11587943	          0.05000072	          0.05004211	          0.16406895	          0.05001250	          0.07453221	          0.17459392	          0.05000782	          0.05000171	          0.16554606	          0.32945284	          0.14765140	          0.05000102	          0.08814473	          0.08773799	          0.07948444	          0.07514593	          0.07627152	          0.06498707	          0.05000024	          0.05000290	          0.05000204	          0.46765098	          0.24386097	          0.16591247	          0.10090354	          0.46434575	          0.22981482	          0.05222755	          0.12156235	          0.10218272	
          1.18558903	         -2.92933212	         -2.42617288	          6.59762371	          1.48532273	          0.91668872	         -0.00263731	        -16.29073947	         -1.93519173	          7.08528450	         28.88414510	          3.59078122	         -2.73520933	        -11.24460657	        -10.51052883	         -8.24572429	          4.66307381	         12.67857989	         -3.84105709	          9.48478164	          0.34570876	         21.48781019	          0.33015294	         -1.61246795	          0.64353733	         -2.44233828	          5.00657462	        -13.47089942	         16.84933208	         -7.65535906	        -13.48076849	          5.64550485	         39.30016340	         16.70593947	         86.51662706	         86.51662706	          0.17429375	          0.08545841	          0.06097299	          0.20019619	          0.15154702	          0.08759902	          0.05002076	          0.05000694	          0.05000998	          0.05000150	          0.09260695	          0.17342810	          0.05977735	          0.05978489	          0.05978267	          0.05978313	          0.25586421	          0.07383318	          0.05019255	          0.05014973	          0.05019987	          0.05977950	          0.37827680	          0.59549213	          0.06066382	          0.05987218	          0.05049666	          0.29203889	          0.13532690	          0.14202877	          0.14373083	          0.21178812	          0.29610659	          0.28899072	          0.23429006	          0.19409577	          0.26013077	          0.05000037	          0.05000144	          0.11227536	          0.05000108	          0.05000041	          0.05000159	          0.05813068	          0.07147744	          0.07147791	          0.05000013	          0.05000037	          0.11100217	          0.05000044	          0.05000049	          0.05000060	          0.14124061	          0.08554357	          0.18406469	          0.08962319	          0.05978911	          0.12600938	          0.31729497	          0.34329516	          0.22633248	          0.12092467	          0.05000214	          0.07221909	          0.15132592	          0.05001919	          0.11593446	          0.16118573	          0.05000118	          0.05975345	          0.53187972	          0.27554505	          0.12349180	          0.05978296	          0.07385448	          0.07858656	          0.06670857	          0.07147428	          0.07147763	          0.06302500	          0.05978161	          0.05005326	          0.05977917	          0.47341362	          0.26405441	          0.20500893	          0.08439339	          0.38836734	          0.19221085	          0.05000007	          0.10167126	          0.08546270	
          1.19732753	         -2.92361172	         -2.51842570	          6.87075026	          1.50367409	          0.91551070	         -0.00246503	        -16.22710849	         -2.27097738	          6.85654836	         28.13850755	          3.87903490	         -2.45587466	        -13.04672208	        -11.17453896	         -8.81866852	          4.06640392	         13.63245210	         -4.21316898	          8.04373364	          0.15571341	         22.89875020	          0.28446887	         -1.36277300	          0.84500887	         -2.50823901	          4.59345583	        -13.48499919	         17.11263920	         -8.67581530	        -13.48003566	          5.59474036	         40.51368557	         16.36121282	         86.51662706	         86.51662706	          0.31520311	          0.07147581	          0.05391074	          0.30533624	          0.12675090	          0.07326576	          0.05000756	          0.05000101	          0.05000079	          0.05000362	          0.07760706	          0.14505067	          0.05000180	          0.05000338	          0.05000415	          0.05000227	          0.24354960	          0.06179417	          0.05000796	          0.05001503	          0.05000736	          0.05000385	          0.31877798	          0.57258160	          0.05073822	          0.05007870	          0.05001016	          0.24425312	          0.11318416	          0.11878944	          0.12021289	          0.17713347	          0.24765507	          0.24170347	          0.19595370	          0.16233677	          0.21756641	          0.05000154	          0.11019457	          0.13295652	          0.05000377	          0.08360215	          0.05000497	          0.05438540	          0.05978168	          0.05978211	          0.24661598	          0.25745774	          0.29625653	          0.42472325	          0.26432638	          0.20944532	          0.11813257	          0.07156057	          0.15394666	          0.07813376	          0.05000821	          0.10539084	          0.26537661	          0.28712273	          0.18929941	          0.13437250	          0.05000258	          0.06040498	          0.12656665	          0.05000471	          0.14453535	          0.13483553	          0.05067922	          0.05000282	          0.44484898	          0.23045840	          0.21120012	          0.05000101	          0.06177033	          0.06572814	          0.05579362	          0.05977915	          0.05978203	          0.05271238	          0.05000047	          0.05000204	          0.05000239	          0.54698359	          0.32480014	          0.17146407	          0.38414133	          0.48846648	          0.16077515	          0.06163786	          0.12217286	          0.07147858	
          1.20906604	         -2.91521839	         -2.60527884	          7.10191612	          1.52210601	          0.91437674	         -0.00226287	        -16.07622540	         -2.59409374	          6.64182675	         27.37429034	          4.13613435	         -2.17917708	        -14.96210141	        -11.81248634	         -9.46628074	          3.47641792	         14.51062218	         -4.59158043	          6.44176435	          0.26110471	         24.13145517	          0.25453654	         -1.11880668	          1.04859080	         -2.56318021	          4.13494687	        -13.50676626	         17.31911413	         -9.66369866	        -13.48132615	          5.61469003	         41.68101554	         16.03267946	         86.51662706	         86.51662706	          0.26828385	          0.05978072	          0.05000095	          0.25537597	          0.10601129	          0.06127765	          0.05000986	          0.05000128	          0.05000127	          0.05000080	          0.06490958	          0.15531834	          0.09424014	          0.05020530	          0.05006910	          0.05006298	          0.20369891	          0.06501596	          0.05000604	          0.05001765	          0.05001228	          0.05000965	          0.26661692	          0.52240813	          0.05000187	          0.05000589	          0.05000111	          0.20428631	          0.13341551	          0.12234790	          0.12217599	          0.14814932	          0.20713162	          0.20215379	          0.16389026	          0.13577443	          0.18196678	          0.08691926	          0.13667794	          0.13375759	          0.05000644	          0.14532168	          0.05000825	          0.07265122	          0.05000017	          0.05000032	          0.34788158	          0.35803510	          0.38064713	          0.35522707	          0.22107866	          0.21368424	          0.09880671	          0.08025371	          0.12875689	          0.06535005	          0.05000475	          0.08814602	          0.22195355	          0.24014242	          0.15833322	          0.16821288	          0.05000191	          0.05052323	          0.10585838	          0.21968718	          0.20141546	          0.17555672	          0.05000043	          0.05000053	          0.37205908	          0.19274911	          0.17664322	          0.05000051	          0.10760602	          0.11683451	          0.09187220	          0.05000021	          0.05000052	          0.05000007	          0.05000031	          0.05000070	          0.05000082	          0.61501789	          0.29093677	          0.15846232	          0.56106857	          0.52836399	          0.30437754	          0.07565189	          0.10218190	          0.05978268	
